<?xml version="1.0" encoding="UTF-8" standalone="no"?>
<!DOCTYPE svg PUBLIC "-//W3C//DTD SVG 1.1//EN" "http://www.w3.org/Graphics/SVG/1.1/DTD/svg11.dtd">
<svg version="1.1" xmlns="http://www.w3.org/2000/svg"
     xml:space="preserve" style="fill-rule:evenodd;clip-rule:evenodd;stroke-linejoin:round;stroke-miterlimit:1.41421;">

    <symbol id="ia-check" viewBox="3 3 8 7">
        <path d="M4.157,6.039c-0.293,-0.293 -0.768,-0.293 -1.061,0c-0.293,0.293 -0.293,0.768 0,1.061l2.122,2.121c0.292,0.293 0.767,0.293 1.06,0c0.293,-0.293 0.293,-0.768 0,-1.061l-2.121,-2.121Z" style="fill:currentColor;"/>
        <path d="M10.687,4.941c0.293,-0.293 0.293,-0.768 0,-1.061c-0.293,-0.293 -0.768,-0.293 -1.06,0l-4.281,4.28c-0.293,0.293 -0.293,0.768 0,1.061c0.293,0.293 0.768,0.293 1.061,0l4.28,-4.28Z" style="fill:currentColor;"/>
    </symbol>

    <symbol id="ia-square-o" viewBox="0 0 12 12">
        <path d="M11.363,3.637c0,-1.655 -1.345,-3 -3,-3l-4.726,0c-1.655,0 -2.999,1.345 -2.999,3l0,4.726c0,1.655 1.344,3 2.999,3l4.726,0c1.655,0 3,-1.345 3,-3l0,-4.726Z" style="fill:#fff;stroke:currentColor;stroke-width:1.27px;" />
    </symbol>

    <symbol id="ia-check-square-o" viewBox="0 0 12 12">
       <path d="M11.363,3.637c0,-1.655 -1.345,-3 -3,-3l-4.726,0c-1.655,0 -2.999,1.345 -2.999,3l0,4.726c0,1.655 1.344,3 2.999,3l4.726,0c1.655,0 3,-1.345 3,-3l0,-4.726Z" style="fill:none;stroke:currentColor;stroke-width:1.27px;" />
        <g>
            <path d="M3.278,5.78c-0.292,-0.292 -0.767,-0.292 -1.06,0c-0.293,0.293 -0.293,0.768 0,1.061l2.121,2.121c0.293,0.293 0.768,0.293 1.061,0c0.293,-0.292 0.293,-0.768 0,-1.06l-2.122,-2.122Z" style="fill:currentColor;" />
            <path d="M9.809,4.682c0.293,-0.293 0.293,-0.768 0,-1.061c-0.293,-0.292 -0.768,-0.292 -1.061,0l-4.28,4.281c-0.293,0.292 -0.293,0.768 0,1.06c0.293,0.293 0.768,0.293 1.06,0l4.281,-4.28Z" style="fill:currentColor;" />
        </g>
    </symbol>

    <symbol id="ia-minus-square-o" viewBox="0 0 16 16">
        <g fill="#fff">
            <rect style="stroke: currentColor;" stroke-width="1.7" x="0.85" y="0.85" width="14.3" height="14.3" rx="4"></rect>
            <rect style="fill: currentColor;" x="4" y="7" width="8" height="2" rx="1"></rect>
        </g>
    </symbol>

    <symbol id="ia-ads" viewBox="0 0 14 14">
        <g>
            <path d="M12.586,2.086c0,-0.828 -0.673,-1.5 -1.5,-1.5l-9,0c-0.828,0 -1.5,0.672 -1.5,1.5l0,9c0,0.827 0.672,1.5 1.5,1.5l9,0c0.827,0 1.5,-0.673 1.5,-1.5l0,-9Z" style="fill:none;"/>
            <path d="M12.398,2.273c0,-0.828 -0.672,-1.5 -1.5,-1.5l-8.625,0c-0.828,0 -1.5,0.672 -1.5,1.5l0,8.625c0,0.828 0.672,1.5 1.5,1.5l8.625,0c0.828,0 1.5,-0.672 1.5,-1.5l0,-8.625Z" style="fill:none;stroke:currentColor;stroke-width:0.38px;"/>
        </g>
        <path d="M10.336,3.586c0,-0.414 -0.336,-0.75 -0.75,-0.75l-6,0c-0.414,0 -0.75,0.336 -0.75,0.75l0,2.857c0,0.414 0.336,0.75 0.75,0.75l6,0c0.414,0 0.75,-0.336 0.75,-0.75l0,-2.857Z" style="fill:currentColor;"/>
        <path d="M10.336,8.461c0,-0.207 -0.168,-0.375 -0.375,-0.375l-6.75,0c-0.207,0 -0.375,0.168 -0.375,0.375c0,0.207 0.168,0.375 0.375,0.375l6.75,0c0.207,0 0.375,-0.168 0.375,-0.375Z" style="fill:currentColor;"/>
        <path d="M6.586,9.961c0,-0.207 -0.168,-0.375 -0.375,-0.375l-3,0c-0.207,0 -0.375,0.168 -0.375,0.375c0,0.207 0.168,0.375 0.375,0.375l3,0c0.207,0 0.375,-0.168 0.375,-0.375Z" style="fill:currentColor;"/>
    </symbol>

    <symbol id="ia-ellipsis-h" viewBox="0 0 14 14">
        <circle cx="6.596" cy="6.576" r="1.5" style="fill:currentColor;"/>
        <circle cx="2.096" cy="6.576" r="1.5" style="fill:currentColor;"/>
        <circle cx="11.096" cy="6.576" r="1.5" style="fill:currentColor;"/>
    </symbol>

    <symbol id="ia-product" viewBox="0 0 14 14">
        <g>
            <path d="M12.56,2.874c-0.001,0.001 -0.003,0.001 -0.004,0.001l0.005,-0.003c-0.001,0.001 -0.001,0.002 -0.001,0.002Zm-0.423,6.207l-5.251,3.137l-0.004,-6.06l5.169,-2.991l0.086,0l0,5.914Zm-10.41,-6.163l2.424,-1.092l4.892,2.576l-2.371,1.372l-4.945,-2.856Zm-0.518,6.153l0,-5.91l0.065,0l5.179,2.991l0.005,6.076l-5.249,-3.157Zm5.453,-8.377l4.945,2.225l-2.117,1.225l-4.833,-2.546l2.005,-0.904Zm5.901,2.175l-5.901,-2.655l-5.893,2.656l0.012,0.007l0,6.446l5.881,3.538l5.904,-3.527l0,-6.472c-0.001,0.003 -0.003,0.004 -0.003,0.007Z" style="fill:currentColor;"/>
        </g>
    </symbol>

    <symbol id="ia-link" viewBox="0 0 14 14">
        <g>
            <path d="M5.549,8.927l-2.56,0c-0.504,0 -0.977,-0.196 -1.333,-0.552c-0.356,-0.357 -0.553,-0.83 -0.553,-1.334l0,-0.109c0,-0.504 0.197,-0.977 0.553,-1.333c0.356,-0.357 0.829,-0.553 1.333,-0.553l2.559,0c0.504,0 0.978,0.196 1.334,0.553c0.356,0.356 0.552,0.829 0.552,1.334l0,0.108c0,0.148 -0.021,0.292 -0.055,0.432c0.128,0.13 0.256,0.26 0.377,0.383c0.096,-0.254 0.152,-0.527 0.152,-0.815l0,-0.109c0,-1.303 -1.056,-2.36 -2.36,-2.36l-2.559,0c-0.651,0 -1.242,0.264 -1.669,0.691c-0.427,0.427 -0.691,1.018 -0.691,1.669l0,0.109c0,1.304 1.057,2.361 2.36,2.36l2.559,0.001c0.437,0 0.843,-0.121 1.194,-0.327c-0.116,-0.116 -0.235,-0.235 -0.348,-0.349c-0.259,0.13 -0.547,0.201 -0.845,0.201" style="fill:currentColor;"/>
        </g>
        <path d="M10.243,3.893l-2.559,0c-0.436,0 -0.842,0.122 -1.193,0.329c0.112,0.111 0.23,0.228 0.349,0.347c0.259,-0.13 0.546,-0.201 0.844,-0.201l2.559,0c0.504,0 0.978,0.195 1.334,0.552c0.356,0.356 0.552,0.829 0.552,1.333l0,0.109c0,0.504 -0.196,0.978 -0.553,1.334c-0.356,0.356 -0.829,0.552 -1.333,0.552l-2.559,0c-1.04,0 -1.886,-0.846 -1.886,-1.886l0,-0.109c0,-0.19 0.03,-0.375 0.084,-0.551c-0.123,-0.122 -0.248,-0.247 -0.367,-0.367c-0.12,0.283 -0.191,0.591 -0.191,0.918l0,0.11c0,1.303 1.056,2.359 2.36,2.36l2.559,0c0.651,0 1.242,-0.264 1.669,-0.692c0.427,-0.427 0.691,-1.017 0.691,-1.668l0,-0.11c0,-1.303 -1.056,-2.36 -2.36,-2.36" style="fill:currentColor;"/>
    </symbol>

    <symbol id="ia-times" viewBox="5 3 4 7">
        <path d="M9.745,3.595c0.197,0.197 0.197,0.517 0,0.713l-4.991,4.992c-0.197,0.197 -0.516,0.197 -0.713,0c-0.197,-0.197 -0.197,-0.516 0,-0.713l4.991,-4.992c0.197,-0.197 0.516,-0.197 0.713,0Z" style="fill:currentColor;"/>
        <path d="M4.041,3.595c0.197,-0.197 0.516,-0.197 0.713,0l4.991,4.992c0.197,0.197 0.197,0.516 0,0.713c-0.197,0.197 -0.516,0.197 -0.713,0l-4.991,-4.992c-0.197,-0.196 -0.197,-0.516 0,-0.713Z" style="fill:currentColor;"/>
    </symbol>

    <symbol id="ia-login" viewBox="0 0 16 16">
        <g>
            <path d="M6.08393157,10.5404275 C5.97221329,10.6456957 5.97221329,10.8158479 6.08393157,10.9211161 C6.13964784,10.9736156 6.21279331,11 6.28593878,11 C6.35908425,11 6.43222972,10.9736156 6.487946,10.9211161 L9.91635416,7.69064721 C9.94292653,7.66587821 9.96378442,7.63599388 9.97835637,7.60287882 C10.0072145,7.53718714 10.0072145,7.46314939 9.97835637,7.39718849 C9.96378442,7.36407342 9.94264081,7.33418909 9.91635416,7.30915087 L6.487946,4.07895116 C6.37622772,3.97368295 6.19564984,3.97368295 6.08393157,4.07895116 C5.97221329,4.18421938 5.97221329,4.35437159 6.08393157,4.45963981 L9.02489375,7.23080547 L0.28572449,7.23080547 C0.127718847,7.23080547 0,7.35115047 0,7.50003365 C0,7.64891684 0.127718847,7.76926183 0.28572449,7.76926183 L9.02489375,7.76926183 L6.08393157,10.5404275 Z" style="fill:currentColor;"/>
            <path d="M12.7435897,0 L3.25641026,0 C3.11461538,0 3,0.119732143 3,0.267857143 L3,5.89285714 C3,6.04098214 3.11461538,6.16071429 3.25641026,6.16071429 C3.39820513,6.16071429 3.51282051,6.04098214 3.51282051,5.89285714 L3.51282051,0.535714286 L12.4871795,0.535714286 L12.4871795,14.4642857 L3.51282051,14.4642857 L3.51282051,9.10714286 C3.51282051,8.95901786 3.39820513,8.83928571 3.25641026,8.83928571 C3.11461538,8.83928571 3,8.95901786 3,9.10714286 L3,14.7321429 C3,14.8802679 3.11461538,15 3.25641026,15 L12.7435897,15 C12.8853846,15 13,14.8802679 13,14.7321429 L13,0.267857143 C13,0.119732143 12.8853846,0 12.7435897,0 Z" style="fill:currentColor;"/>
        </g>
    </symbol>

    <symbol id="ia-pencil" viewBox="0 0 16 16">
        <g>
            <path d="M12.1579498,0.841457568 C11.0389094,-0.280485856 9.21908381,-0.280485856 8.10004341,0.841457568 L0.660086719,8.27952693 C0.601918778,8.33770177 0.565910052,8.412498 0.554830444,8.49283469 L0.00361995185,12.5761547 C-0.01299946,12.6925044 0.0285490696,12.8088541 0.108876227,12.8891908 C0.178123776,12.9584465 0.275070345,13 0.372016914,13 C0.388636326,13 0.405255738,13 0.421875149,12.9972298 L2.8815481,12.6648021 C3.08652085,12.6370998 3.23055575,12.4487241 3.20285673,12.243727 C3.17515771,12.03873 2.98680437,11.894678 2.78183163,11.9223803 L0.809661425,12.1883224 L1.1946778,9.34052528 L4.19171173,12.3379149 C4.26095928,12.4071706 4.35790585,12.4487241 4.45485242,12.4487241 C4.55179899,12.4487241 4.64874556,12.4099409 4.71799311,12.3379149 L12.1579498,4.89984551 C12.7008506,4.35688029 13,3.63662032 13,2.86926642 C13,2.10191252 12.7008506,1.38165255 12.1579498,0.841457568 Z M8.48729325,1.625 L9.75,2.88770675 L2.88770675,9.75 L1.625,8.48729325 L8.48729325,1.625 Z M4.48897822,11.375 L3.25,10.1360218 L10.1360218,3.25 L11.375,4.48897822 L4.48897822,11.375 Z M11.7339514,4.0625 L8.9375,1.26604864 C9.2925638,0.973185805 9.73574561,0.8125 10.2022528,0.8125 C10.7335526,0.8125 11.2311603,1.01983652 11.6069577,1.39304226 C11.9827552,1.76624801 12.1875,2.26644737 12.1875,2.79774721 C12.1875,3.26684609 12.0268142,3.7074362 11.7339514,4.0625 Z" style="fill:currentColor;"/>
        </g>
    </symbol>

    <symbol id="ia-info" viewBox="-5 1 15 15">
        <g>
            <circle id="Oval" cx="0.925" cy="0.925" r="1" style="fill:currentColor;"/>
           <path d="M0.925,2.775 C0.4144,2.775 0,3.16966667 0,3.65595238 L0,11.1440476 C0,11.6303333 0.4144,12.025 0.925,12.025 C1.4356,12.025 1.85,11.6303333 1.85,11.1440476 L1.85,3.65595238 C1.85,3.16922619 1.4356,2.775 0.925,2.775Z" style="fill:currentColor;" />
        </g>
    </symbol>

    <symbol id="ia-settings" viewBox="0 0 16 16">
        <g>
            <path d="M8.50701123,15.1794872 L6.67220312,15.1794872 C6.30573756,15.1794872 6.00224703,14.9048426 5.96613374,14.5408822 L5.77802715,13.4136812 C5.42460801,13.3038036 5.08123412,13.1610866 4.75316373,12.9885316 L3.80905916,13.6627538 C3.69618033,13.756311 3.53667169,13.8134822 3.37312016,13.8134822 C3.18347578,13.8134822 3.00541445,13.7395194 2.87120496,13.6053099 L1.57392928,12.3080094 C1.31483627,12.0489164 1.29477057,11.6400623 1.52677862,11.3566375 L2.19095559,10.4263234 C2.01787967,10.097757 1.87541076,9.75411027 1.76580593,9.40168326 L0.622036534,9.21082353 C0.274892576,9.17748819 0,8.87397285 0,8.50701123 L0,6.67247595 C0,6.30601039 0.274644545,6.00251986 0.638604994,5.96613374 L1.76580593,5.77750628 C1.87590682,5.42359108 2.01862376,5.08021719 2.19070756,4.75313893 L1.51673337,3.80903436 C1.29449774,3.53940003 1.31456343,3.13057081 1.57392928,2.87170102 L2.87145299,1.57392928 C3.12154248,1.32436065 3.54969331,1.30355086 3.82208078,1.52628255 L4.7536598,2.19073236 C5.08049003,2.01842534 5.42386392,1.87595643 5.77802715,1.76583074 L5.96839082,0.622309368 C6.00227183,0.274644545 6.30601039,0 6.67247595,0 L8.50725926,0 C8.87322876,0 9.17671929,0.274396514 9.21360147,0.638108932 L9.40198089,1.76583074 C9.75564806,1.87593162 10.099022,2.01842534 10.4261002,2.19073236 L11.3704528,1.51651014 C11.4830836,1.42320094 11.6426171,1.36625306 11.806119,1.36625306 C11.9957634,1.36625306 12.1738247,1.43999263 12.3077862,1.57392928 L13.6050618,2.87170102 C13.8639316,3.12980191 13.8847166,3.53838311 13.6532046,3.82208078 L12.9887796,4.75316373 C13.1613347,5.080242 13.3035556,5.42361589 13.4136812,5.77753109 L14.5574506,5.96841562 C14.9050907,6.00251986 15.1794872,6.30601039 15.1794872,6.67247595 L15.1794872,8.50701123 C15.1794872,8.87397285 14.9048426,9.17721535 14.5403613,9.21255975 L13.4136564,9.40093917 C13.3035556,9.7551024 13.1610618,10.0987491 12.9887548,10.4258026 L13.662977,11.3696839 C13.8849646,11.6403104 13.86413,12.0494124 13.604789,12.3077614 L12.3077614,13.604789 C12.0586888,13.8541096 11.629521,13.8761595 11.3563895,13.6521877 L10.4260754,12.988234 C10.0979802,13.1610618 9.75463114,13.3037788 9.40195609,13.4134084 L9.21082353,14.5574258 C9.17671929,14.9048426 8.87322876,15.1794872 8.50701123,15.1794872 Z M4.73508229,12.4422437 C4.77722272,12.4422437 4.81961119,12.4527602 4.85773353,12.4743389 C5.23999866,12.6885631 5.64681884,12.8573481 6.0679752,12.9764773 C6.1612844,13.0028182 6.23100587,13.0808239 6.24705346,13.1766382 L6.46301391,14.4749308 C6.47556427,14.595821 6.56661639,14.6778448 6.67220312,14.6778448 L8.50701123,14.6778448 C8.61259796,14.6778448 8.70340204,14.596069 8.71369532,14.4914744 L8.93265695,13.1766382 C8.94845651,13.0810719 9.01842601,13.0030662 9.11176001,12.9767253 C9.53187464,12.8578193 9.93871962,12.6890096 10.3212328,12.4745621 C10.4057617,12.4269154 10.5106291,12.4326945 10.5896269,12.4893695 L11.6608721,13.2546439 C11.7689888,13.3416779 11.8791145,13.3235964 11.9523332,13.2506258 L13.2498569,11.9531021 C13.3261016,11.8771302 13.3321039,11.7574553 13.2643915,11.6744642 L12.4888487,10.590123 C12.4321488,10.5111004 12.4266425,10.4065306 12.4740412,10.3215056 C12.6882407,9.94072867 12.8568024,9.5339085 12.9757084,9.11200804 C13.0020493,9.01845081 13.0800302,8.94872934 13.1760925,8.93268175 L14.4746331,8.71620044 C14.5955482,8.70365008 14.677572,8.61311882 14.677572,8.50750729 L14.677572,6.67297201 C14.677572,6.56738529 14.5957962,6.47633317 14.4912016,6.46603989 L13.1763653,6.24732629 C13.080303,6.2312787 13.0025205,6.16155723 12.9759564,6.068 C12.8570504,5.64609955 12.6882407,5.23925457 12.4742893,4.85902329 C12.4268906,4.77397352 12.4324217,4.66937892 12.4890967,4.5903811 L13.2548671,3.51861505 C13.3323767,3.42280074 13.3261016,3.30339869 13.2503529,3.22765008 L11.952854,1.9296055 C11.8798834,1.85661002 11.7542061,1.85035964 11.6749355,1.91531892 L10.589875,2.69110977 C10.5108524,2.74780962 10.4060097,2.7533159 10.3215056,2.70591721 C9.94050545,2.49196581 9.53363566,2.32315602 9.11200804,2.20375398 C9.01869884,2.17766114 8.94897738,2.09940741 8.93290498,2.0035931 L8.7166965,0.705325289 C8.70340204,0.581905145 8.61435897,0.501667169 8.50701123,0.501667169 L6.67220312,0.501667169 C6.56460734,0.501667169 6.4758123,0.581681917 6.46527099,0.68803754 L6.24705346,2.00260097 C6.2312539,2.09841528 6.1612844,2.17642098 6.0679752,2.20276186 C5.64557868,2.32241193 5.2387337,2.49097369 4.85875046,2.70492509 C4.77347746,2.75234858 4.66888286,2.7468175 4.59010826,2.69011765 L3.51782135,1.92434724 C3.40995274,1.83805732 3.29935579,1.85536987 3.22636032,1.9288614 L1.9288614,3.22638512 C1.85311279,3.30213374 1.84733367,3.42153578 1.91507089,3.50405564 L2.69036568,4.58938897 C2.74706553,4.66863482 2.75257181,4.77322943 2.70517312,4.85803117 C2.49146975,5.23828725 2.32265996,5.64510742 2.20300989,6.06725591 C2.17691704,6.16056511 2.09866331,6.23031138 2.002849,6.24635897 L0.704581197,6.46281549 C0.581657114,6.47586191 0.501667169,6.56490498 0.501667169,6.67252556 L0.501667169,8.50706083 C0.501667169,8.61440858 0.581433886,8.70320362 0.687516675,8.7134721 L2.00260097,8.93218569 C2.09841528,8.94801006 2.17642098,9.01797955 2.20276186,9.11151198 C2.32139501,9.53115535 2.49020479,9.93824837 2.70492509,10.3215056 C2.75234858,10.4062826 2.7468175,10.5106291 2.69011765,10.5896518 L1.9248433,11.6609217 C1.84658958,11.7572321 1.85259192,11.8766094 1.92858857,11.9526308 L3.22611228,13.2499065 C3.29985185,13.323398 3.42503301,13.3299212 3.50403084,13.2641931 L4.58911614,12.4888983 C4.63274476,12.4580184 4.68391352,12.4422437 4.73508229,12.4422437 Z M7.58999162,10.5921321 C5.93403855,10.5921321 4.58685906,9.2452006 4.58685906,7.58949556 C4.58685906,5.93354248 5.93403855,4.586363 7.58999162,4.586363 C9.2459695,4.586363 10.5928762,5.93354248 10.5928762,7.58949556 C10.5926281,9.24492777 9.24569666,10.5921321 7.58999162,10.5921321 Z M7.58999162,5.08800536 C6.21071694,5.08800536 5.08850142,6.21022088 5.08850142,7.58949556 C5.08850142,8.96854701 6.21069214,10.0904649 7.58999162,10.0904649 C8.96904307,10.0904649 10.0912338,8.96854701 10.0912338,7.58949556 C10.0909858,6.21019608 8.96901827,5.08800536 7.58999162,5.08800536 Z" style="fill:currentColor;"/>
        </g>
    </symbol>

    <symbol id="ia-team" viewBox="0 0 20 20">
        <g>
           <path d="M16.2231403,4.87036959 C16.7627628,4.34186699 17.0769898,3.61991486 17.0769898,2.84615385 C17.0769898,1.27684095 15.8002921,0 14.2308248,0 C13.7122891,0 13.2021289,0.142530048 12.7549326,0.412284655 C12.6054719,0.502635216 12.5572946,0.696862981 12.6474603,0.846508413 C12.7376259,0.996153846 12.9321879,1.04384916 13.0816857,0.953980369 C13.4303409,0.74366887 13.8275069,0.632490986 14.2308248,0.632490986 C15.4513033,0.632490986 16.4444963,1.62553185 16.4444963,2.84615385 C16.4444963,3.59782752 16.0680465,4.2906881 15.4361831,4.70048978 C14.9056031,5.04855068 14.2329743,5.14890725 13.6187141,4.97395032 C13.4525766,4.92606971 13.2759142,5.02305389 13.227737,5.19104367 C13.1798562,5.35903345 13.2771372,5.53399038 13.4451647,5.58201923 C13.7008748,5.65521134 13.9652198,5.69227063 14.2308248,5.69227063 C14.7280884,5.69227063 15.2087493,5.55663361 15.6354888,5.31167167 C17.2589146,5.89991386 18.3419396,7.43264924 18.3419396,9.17091546 L18.3419396,10.7521244 L15.4582705,10.7521244 C15.2342833,8.63989283 13.9054059,6.79152344 11.967086,5.91384816 C12.5839033,5.28584135 12.9658379,4.42636218 12.9658379,3.47864483 C12.965875,1.56049279 11.405339,0 9.48721655,0 C7.56909407,0 6.00855813,1.56049279 6.00855813,3.47864483 C6.00855813,4.42665865 6.39071507,5.28639724 7.00786592,5.91447817 C6.35554566,6.21084135 5.75055031,6.62546074 5.23742531,7.13565605 C4.2537566,8.12213742 3.65517253,9.38826823 3.51308664,10.7521985 L0.632493456,10.7521985 L0.632493456,9.17098958 C0.632493456,8.07588742 1.06023351,7.04334135 1.83570228,6.26461438 C2.26258997,5.84043369 2.78231155,5.51683193 3.34190909,5.31345052 C3.76872265,5.55741186 4.24793827,5.69230769 4.74360827,5.69230769 C5.00921328,5.69230769 5.27355826,5.6552484 5.52926839,5.58205629 C5.69725883,5.53402744 5.79453986,5.35907051 5.74669613,5.19108073 C5.69851885,5.02309095 5.52185651,4.92625501 5.35571904,4.97398738 C4.7417553,5.14924079 4.06946001,5.04903245 3.53673056,4.6997486 C2.90642361,4.2906881 2.52993677,3.59786458 2.52993677,2.84615385 C2.52993677,1.62553185 3.52312975,0.632490986 4.74360827,0.632490986 C5.14692615,0.632490986 5.54409217,0.74366887 5.89274738,0.953980369 C6.04283811,1.04384916 6.23647368,0.995672075 6.32697283,0.846508413 C6.41713845,0.69690004 6.36896118,0.502635216 6.21950046,0.412284655 C5.7723042,0.142530048 5.26214395,0 4.74360827,0 C3.174141,0 1.89744331,1.27684095 1.89744331,2.84615385 C1.89744331,3.61932192 2.21115147,4.34071815 2.74921747,4.86873898 C2.24769207,5.10187901 1.78448614,5.42373898 1.38850602,5.81708634 C0.493187023,6.71636719 0,7.90737881 0,9.17095252 L0,11.0683884 C0,11.2430489 0.141455881,11.3846154 0.316228198,11.3846154 L3.47862136,11.3846154 L3.47862136,13.9145423 C3.47862136,14.0892027 3.62007724,14.2307692 3.79484956,14.2307692 L15.1795094,14.2307692 C15.3543188,14.2307692 15.4957376,14.0891657 15.4957376,13.9145423 L15.4957376,11.3846154 L18.6581308,11.3846154 C18.8329402,11.3846154 18.974359,11.2430118 18.974359,11.0683884 L18.974359,9.17095252 C18.974359,7.3011258 17.8877762,5.63775641 16.2231403,4.87036959 Z M6.64105158,3.47864483 C6.64105158,1.90933193 7.91774928,0.632490986 9.48721655,0.632490986 C11.0566838,0.632490986 12.3333815,1.90933193 12.3333815,3.47864483 C12.3333815,5.04795773 11.0566838,6.32479868 9.48721655,6.32479868 C7.91774928,6.32479868 6.64105158,5.04792067 6.64105158,3.47864483 Z M14.8633183,13.5982782 L4.11111482,13.5982782 L4.11111482,11.3846154 C4.11111482,9.95071715 4.67008235,8.60038762 5.68428803,7.58310998 C6.21857397,7.05167969 6.86629886,6.63946915 7.5607557,6.37279046 C8.11275605,6.74141927 8.77508235,6.9572526 9.48721655,6.9572526 C10.2005366,6.9572526 10.8640118,6.74078926 11.416531,6.37104868 C13.4836324,7.16526643 14.8633183,9.15809295 14.8633183,11.3846154 L14.8633183,13.5982782 Z" style="fill:currentColor;"/>
        </g>
    </symbol>

    <symbol id="ia-reports" viewBox="0 0 17 17">
        <g>
             <path d="M2.22222222,9.6 L0.277777778,9.6 C0.124375,9.6 0,9.734325 0,9.9 L0,11.7 C0,11.865675 0.124375,12 0.277777778,12 L2.22222222,12 C2.375625,12 2.5,11.865675 2.5,11.7 L2.5,9.9 C2.5,9.734325 2.375625,9.6 2.22222222,9.6 Z M1.94444444,11.4 L0.555555556,11.4 L0.555555556,10.2 L1.94444444,10.2 L1.94444444,11.4 Z" style="fill:currentColor;"></path>
            <path d="M5.34722222,8 L3.40277778,8 C3.249375,8 3.125,8.16281818 3.125,8.36363636 L3.125,11.6363636 C3.125,11.8371818 3.249375,12 3.40277778,12 L5.34722222,12 C5.500625,12 5.625,11.8371818 5.625,11.6363636 L5.625,8.36363636 C5.625,8.16281818 5.500625,8 5.34722222,8 Z M5.06944444,11.2727273 L3.68055556,11.2727273 L3.68055556,8.72727273 L5.06944444,8.72727273 L5.06944444,11.2727273 Z" style="fill:currentColor;"></path>
            <path d="M8.47222222,6.4 L6.52777778,6.4 C6.374375,6.4 6.25,6.5567125 6.25,6.75 L6.25,11.65 C6.25,11.8432875 6.374375,12 6.52777778,12 L8.47222222,12 C8.625625,12 8.75,11.8432875 8.75,11.65 L8.75,6.75 C8.75,6.5567125 8.625625,6.4 8.47222222,6.4 Z M8.19444444,11.3 L6.80555556,11.3 L6.80555556,7.1 L8.19444444,7.1 L8.19444444,11.3 Z" style="fill:currentColor;"></path>
            <path d="M11.5972222,4 L9.65277778,4 C9.499375,4 9.375,4.15573913 9.375,4.34782609 L9.375,11.6521739 C9.375,11.8442609 9.499375,12 9.65277778,12 L11.5972222,12 C11.750625,12 11.875,11.8442609 11.875,11.6521739 L11.875,4.34782609 C11.875,4.15573913 11.750625,4 11.5972222,4 Z M11.3194444,11.3043478 L9.93055556,11.3043478 L9.93055556,4.69565217 L11.3194444,4.69565217 L11.3194444,11.3043478 Z" style="fill:currentColor;"></path>
            <path d="M14.7222222,0 L12.7777778,0 C12.624375,0 12.5,0.145216216 12.5,0.324324324 L12.5,11.6756757 C12.5,11.8547838 12.624375,12 12.7777778,12 L14.7222222,12 C14.875625,12 15,11.8547838 15,11.6756757 L15,0.324324324 C15,0.145216216 14.875625,0 14.7222222,0 Z M14.4444444,11.3513514 L13.0555556,11.3513514 L13.0555556,0.648648649 L14.4444444,0.648648649 L14.4444444,11.3513514 Z" style="fill:currentColor;"></path>
        </g>
    </symbol>

    <symbol id="ia-tiktok" viewBox="0 0 44 54">
        <g fill="none" fill-rule="evenodd">
            <path fill="currentColor" d="M20.023 18.111v-1.703a13.17 13.17 0 0 0-1.784-.13c-7.3 0-13.239 5.94-13.239 13.24 0 4.478 2.238 8.442 5.652 10.839a13.187 13.187 0 0 1-3.555-9.014c0-7.196 5.77-13.064 12.926-13.232"/>
            <path fill="currentColor" d="M20.335 37.389c3.257 0 5.914-2.591 6.035-5.82l.011-28.825h5.266a9.999 9.999 0 0 1-.17-1.825h-7.192l-.012 28.826c-.12 3.228-2.778 5.818-6.034 5.818a6.006 6.006 0 0 1-2.805-.694 6.037 6.037 0 0 0 4.901 2.52M41.484 12.528v-1.602a9.943 9.943 0 0 1-5.449-1.62 10.011 10.011 0 0 0 5.45 3.222"/>
            <path fill="currentColor" d="M36.035 9.305a9.962 9.962 0 0 1-2.461-6.56h-1.927a10.025 10.025 0 0 0 4.388 6.56M18.239 23.471a6.053 6.053 0 0 0-6.046 6.046 6.05 6.05 0 0 0 3.24 5.352 6.007 6.007 0 0 1-1.144-3.526 6.053 6.053 0 0 1 6.046-6.047c.623 0 1.22.103 1.784.28v-7.343a13.17 13.17 0 0 0-1.784-.13c-.105 0-.208.006-.312.008v5.64a5.944 5.944 0 0 0-1.784-.28"/>
            <path fill="currentColor" d="M41.484 12.528v5.59c-3.73 0-7.185-1.193-10.007-3.218v14.617c0 7.3-5.938 13.239-13.238 13.239-2.821 0-5.437-.89-7.587-2.4a13.201 13.201 0 0 0 9.683 4.225c7.3 0 13.239-5.939 13.239-13.238V16.726a17.107 17.107 0 0 0 10.007 3.218V12.75c-.72 0-1.42-.078-2.097-.223"/>
            <path fill="currentColor" d="M31.477 29.517V14.9a17.103 17.103 0 0 0 10.007 3.218v-5.59a10.011 10.011 0 0 1-5.449-3.223 10.025 10.025 0 0 1-4.388-6.56h-5.266L26.37 31.57c-.121 3.228-2.778 5.819-6.035 5.819a6.038 6.038 0 0 1-4.901-2.52 6.05 6.05 0 0 1-3.241-5.352 6.053 6.053 0 0 1 6.046-6.046c.622 0 1.219.102 1.784.28v-5.64c-7.156.168-12.926 6.036-12.926 13.232 0 3.48 1.352 6.648 3.555 9.014a13.16 13.16 0 0 0 7.587 2.399c7.3 0 13.238-5.939 13.238-13.239"/>
        </g>
    </symbol>
</svg>