<svg width="288" height="103" fill="none" xmlns="http://www.w3.org/2000/svg"><path d="m67.465 27.885-1.017-4.97-1.186-5.798-1.14-5.58c-.156-.757-.31-1.515-.465-2.272-.012-.058-.018-.106-.103-.106-1.275.006-2.55.003-3.824.01a2.641 2.641 0 0 0-1.212.278c-.533.275-.853.734-1.077 1.28l-7.043 17.144c-.015.038-.043.074-.034.122.02 0 .039.003.057.003 1.617 0 3.233 0 4.849.002.078 0 .102-.032.126-.099.307-.875.62-1.748.927-2.624.028-.08.065-.103.146-.103 1.974.002 3.947.002 5.92 0 .077 0 .11.013.128.101.172.874.35 1.747.526 2.62.012.056.015.105.1.105 1.448-.004 2.896-.005 4.343-.004v-.07a.177.177 0 0 1-.02-.039Zm-5.839-6.561c-1.277-.002-2.555-.002-3.833-.002a.402.402 0 0 1-.05-.007c.838-2.348 1.709-4.677 2.53-7.06.048.231.092.432.133.634l1.286 6.348c.014.07.006.087-.066.087ZM50.635 21.008c-.161-1.007-.65-1.836-1.358-2.541-.702-.7-1.528-1.213-2.4-1.658-.658-.336-1.32-.666-1.933-1.083a3.025 3.025 0 0 1-.645-.562c-.401-.482-.401-1.066 0-1.549a1.89 1.89 0 0 1 .599-.47c.496-.256 1.031-.345 1.579-.372a8.187 8.187 0 0 1 4.021.803c.078.037.157.071.239.108.01-.049.018-.083.023-.118.202-1.274.403-2.548.61-3.821.018-.107-.01-.141-.1-.174a11.622 11.622 0 0 0-3.179-.712c-.108-.01-.22.007-.322-.04h-1.383c-.008.033-.035.021-.056.023-.455.027-.91.082-1.359.165-1.203.224-2.34.63-3.359 1.335-1.09.754-1.898 1.736-2.307 3.028a5.245 5.245 0 0 0-.207 2.41c.143.93.59 1.701 1.22 2.37.654.694 1.433 1.212 2.256 1.667.512.282 1.045.524 1.55.82.438.257.866.524 1.206.912.479.546.503 1.278.063 1.845-.15.19-.335.349-.544.469a3.39 3.39 0 0 1-1.497.459 9.293 9.293 0 0 1-3.194-.289c-.799-.22-1.552-.557-2.297-.919-.042-.02-.082-.053-.138-.05l-.053.34c-.2 1.267-.4 2.533-.602 3.8-.01.059.003.084.055.104.143.055.283.12.428.17 1.462.519 2.975.74 4.514.795.864.03 1.729-.031 2.58-.183 1.078-.19 2.108-.52 3.056-1.084 1.363-.812 2.335-1.952 2.773-3.522a5.75 5.75 0 0 0 .161-2.476ZM30.208 9.163c-1.59 0-3.179 0-4.768-.002-.105 0-.15.028-.187.131-1.523 4.19-3.048 8.38-4.576 12.568-.014.037-.011.087-.061.106l-.192-.979-.329-1.643c.003-.023.005-.049-.017-.066-.004-.039-.005-.077-.012-.115l-.615-3.196c-.336-1.739-.666-3.48-1.012-5.218-.15-.752-.583-1.262-1.327-1.467a3.483 3.483 0 0 0-.931-.119h-7.45a.167.167 0 0 1-.034 0c-.092-.02-.12.036-.132.115-.01.068-.012.139-.05.2v.07c.669.165 1.322.383 1.971.617.519.188 1.027.4 1.525.638.523.245 1.034.518 1.529.817.003.01 0 .027.018.024-.012.039.005.074.015.11l2.015 7.75 2.17 8.352c.025.099.064.126.16.125 1.601-.003 3.202-.003 4.803 0 .087 0 .134-.019.17-.109 2.468-6.193 4.938-12.384 7.41-18.575.053-.134.053-.134-.093-.134ZM36.935 9.16c-.602.003-1.205.001-1.808.001h-2.741c-.06 0-.11-.006-.122.082-.025.197-.06.394-.092.59l-.746 4.714a4295.118 4295.118 0 0 0-1.311 8.269c-.268 1.687-.536 3.374-.807 5.06-.02.122.02.121.11.121.753-.002 1.506-.001 2.258-.001h2.292c.072 0 .106-.012.119-.097.072-.495.153-.989.23-1.483a31925.938 31925.938 0 0 1 2.722-17.14c.02-.11-.013-.117-.104-.117Z" fill="#172B4D"/><path d="M113.8 14.252c-3.957 0-7.05 3.004-7.05 7.026s3.015 7 7.05 7c4.036 0 7.103-3.03 7.103-7.026s-3.015-7-7.103-7Zm.027 11.128c-2.254 0-3.905-1.75-3.905-4.101 0-2.35 1.625-4.127 3.878-4.127 2.254 0 3.931 1.776 3.931 4.127 0 2.35-1.651 4.1-3.905 4.1h.001Zm7.941-8.072h1.966v10.71h3.145V14.513h-5.111v2.795Zm-22.931-.156c1.652 0 2.962 1.019 3.459 2.534h3.329c-.603-3.239-3.276-5.433-6.761-5.433-3.959-.001-7.051 3.003-7.051 7.026s3.014 7 7.05 7c3.407 0 6.132-2.194 6.735-5.46h-3.302c-.471 1.516-1.782 2.56-3.433 2.56-2.28 0-3.879-1.75-3.879-4.1 0-2.35 1.573-4.127 3.853-4.127Zm82.683 2.822-2.306-.34c-1.101-.156-1.887-.522-1.887-1.384 0-.94 1.022-1.41 2.411-1.41 1.52 0 2.49.652 2.7 1.723h3.04c-.342-2.716-2.438-4.31-5.661-4.31-3.223 0-5.53 1.699-5.53 4.102 0 2.403 1.442 3.631 4.35 4.048l2.306.34c1.128.156 1.757.6 1.757 1.436 0 1.071-1.101 1.515-2.621 1.515-1.861 0-2.909-.757-3.067-1.906h-3.092c.289 2.638 2.359 4.492 6.132 4.492 3.434 0 5.713-1.567 5.713-4.258 0-2.403-1.651-3.657-4.245-4.048ZM125.305 8.949c-1.153 0-2.018.836-2.018 1.985s.864 1.985 2.018 1.985 2.019-.836 2.019-1.985c0-1.15-.866-1.985-2.019-1.985Zm46.151 10.188c0-2.925-1.782-4.884-5.556-4.884-3.564 0-5.556 1.802-5.949 4.571h3.119c.157-1.07.996-1.959 2.778-1.959 1.599 0 2.385.706 2.385 1.568 0 1.123-1.442 1.41-3.224 1.593-2.411.261-5.398 1.097-5.398 4.232 0 2.43 1.808 3.996 4.691 3.996 2.254 0 3.669-.94 4.377-2.43.105 1.332 1.101 2.194 2.49 2.194h1.834v-2.794h-1.546v-6.087h-.001Zm-3.093 3.396c0 1.803-1.572 3.135-3.485 3.135-1.18 0-2.176-.497-2.176-1.541 0-1.332 1.599-1.698 3.067-1.854 1.415-.13 2.201-.444 2.594-1.046v1.307-.001Zm-16.693-8.28c-1.757 0-3.224.732-4.272 1.959V8.819h-3.145v19.2h3.092v-1.777c1.048 1.28 2.543 2.037 4.325 2.037 3.773 0 6.63-2.977 6.63-7s-2.909-7.026-6.63-7.026Zm-.472 11.128c-2.254 0-3.905-1.75-3.905-4.101 0-2.35 1.677-4.127 3.931-4.127 2.253 0 3.878 1.75 3.878 4.127 0 2.376-1.651 4.1-3.905 4.1h.001Zm-14.467-11.13c-2.044 0-3.381.836-4.167 2.012v-1.75h-3.119v13.505h3.145v-7.34c0-2.064 1.31-3.527 3.249-3.527 1.809 0 2.935 1.28 2.935 3.135v7.732h3.145v-7.967c0-3.396-1.756-5.8-5.189-5.8h.001Zm64.023 6.583c0-3.866-2.83-6.582-6.63-6.582-4.036 0-6.998 3.03-6.998 7.026 0 4.206 3.172 7 7.05 7 3.276 0 5.845-1.933 6.499-4.675h-3.276c-.472 1.201-1.625 1.88-3.172 1.88-2.018 0-3.538-1.253-3.878-3.448h10.404v-1.201h.001Zm-10.22-1.045c.498-1.881 1.913-2.795 3.538-2.795 1.782 0 3.145 1.018 3.459 2.795h-6.997Z" fill="#253858"/><path fill-rule="evenodd" clip-rule="evenodd" d="M225.081 35.734s.683.248 1.448.248c.827 0 1.323-.123 1.612-.413.228-.228.331-.62.311-1.22v-3.887h1.22v4.073c-.021 1.799-.889 2.564-2.916 2.564-.992 0-1.675-.165-1.675-.165v-1.2Zm8.146-4.093c1.944 0 3.081 1.034 3.081 2.77 0 1.24-.806 2.688-3.081 2.688-2.274 0-3.101-1.447-3.101-2.688 0-1.736 1.158-2.77 3.101-2.77Zm1.882 2.709c0-1.055-.682-1.655-1.882-1.655-1.199 0-1.901.6-1.901 1.654 0 1.468 1.199 1.675 1.901 1.675.703 0 1.882-.208 1.882-1.675Zm6.057-2.585v2.067h-3.121v-2.067h-1.199v5.21h1.199v-2.088h3.121v2.088h1.22v-5.21h-1.22Zm18.153 4.135v-1.013h2.77v-1.055h-2.77V32.82h3.577v-1.054h-4.797v5.21h4.797V35.9h-3.577Zm5.417 0v-1.013h2.771v-1.055h-2.771V32.82h3.597v-1.054h-4.796v5.21h4.796V35.9h-3.597Zm11.371 0v-1.013h2.771v-1.055h-2.771V32.82h3.598v-1.054h-4.798v5.21h4.798V35.9h-3.598Zm-22.122-4.362c1.571 0 2.481.785 2.481 2.15 0 1.922-1.55 2.212-2.481 2.212h-1.716v-4.362h1.716Zm0-1.076h-2.915v6.513h2.915c2.729 0 3.68-1.737 3.68-3.205 0-2.068-1.385-3.308-3.68-3.308Zm19.02 4.528c.931-.227 1.261-.93 1.261-1.55 0-1.055-.682-1.675-1.86-1.675h-3.411v5.21h1.199v-1.903h1.427l1.447 1.903h1.468l-1.53-1.985h-.001Zm-2.811-.992v-1.179h2.213c.413 0 .661.228.661.579 0 .517-.413.6-.661.6h-2.213Zm-22.742 2.977-3.143-3.556v3.556h-1.199v-5.21h1.199l3.143 3.515v-3.515h1.199v5.21h-1.199ZM263.842 3.999c-3.433-1.584-7.318-2.414-11.241-2.414-3.924 0-7.771.83-11.241 2.414-1.132 2.942-1.735 6.035-1.735 9.166 0 3.13.603 6.262 1.735 9.204 3.47 1.584 7.355 2.413 11.241 2.413 3.885 0 7.77-.829 11.241-2.413-.754-1.358-1.924-2.565-1.999-2.603-.151-.038-3.206-.98-4.263-1.509-.867-.453-1.735-1.509-1.848-1.622a11.39 11.39 0 0 0-2.528.038c-1.093.151-2.263.34-3.394.151-.641-.076-1.283-.302-1.962-.49-.98-.34-2.036-.68-3.206-.68.151.303 1.17 2.189 2.603 2.641 0 0 .453.113.603.226l.604 1.17s-3.206-1.584-5.319-4.187l-.075-.49c1.282-.49 2.602-.604 3.923-.717 0 0 .302-.038.34-.038a12.947 12.947 0 0 1 1.207-4.15c.113-.15-.076-.187-.076-.187-.49-.114-1.773-.378-1.773-.378l-.188-.528c1.283-.49 2.867-.905 3.885-1.131.151-.227.226-.453.226-.604a.485.485 0 0 0-.151-.377c-.49-.604-2.452-.415-4.564.377l-.038-.038c.34-.302.944-.641 1.434-.867-.151-.642-.981-.906-.981-.906v-.075c.717.075 1.245.377 1.509.754.566-.15.83-.226 1.283-.264-.038-.943-.981-1.622-.981-1.622l.038-.038c.868.302 1.509.906 1.735 1.66.415 0 .641.038 1.018.151.113-.264.151-.566.151-.83 0-.905-.603-1.584-.641-1.622l.075-.037c1.095.565 1.358 1.508 1.358 2.376 0 .792-.226 1.509-.301 1.698 0 0 1.244-.226 2.187-.34-.037.075-.452.641-1.584 1.245l-.905-.113c-.076.226-.604 1.886-.604 3.13 0 .416.113.793.378 1.02.452.414 1.207.452 1.697.452 3.584-.151 5.13.34 5.357.452.037-.075.075-.263.075-.527 0-.529-.151-1.359-.981-2.377l.038-.038c.038 0 2.15 1.132 2.414 2.905l-.943.377c.83.867 1.131 1.924 1.358 2.791.189.604.339 1.132.641 1.396.378.34 1.886 1.132 1.924 1.132 0 0 .452.566 1.546 2.452a25.237 25.237 0 0 0 1.433-8.412c0-3.13-.603-6.224-1.734-9.166l-.001-.001Z" fill="#253858"/><path fill-rule="evenodd" clip-rule="evenodd" d="M265.162 2.83C261.39 1.017 257.09 0 252.601 0c-4.489 0-8.789 1.018-12.561 2.867a26.821 26.821 0 0 0-2.037 10.298c0 3.621.717 7.13 2.037 10.335a29.1 29.1 0 0 0 12.561 2.867 29.1 29.1 0 0 0 12.561-2.867 26.87 26.87 0 0 0 2.075-10.335c0-3.621-.754-7.13-2.075-10.336Zm-.905 19.879c-3.47 1.66-7.507 2.565-11.656 2.565-4.149 0-8.148-.905-11.656-2.565a25.883 25.883 0 0 1-1.81-9.544c0-3.357.641-6.563 1.81-9.543a27.894 27.894 0 0 1 11.656-2.565c4.149 0 8.148.943 11.656 2.565 1.17 2.98 1.848 6.186 1.848 9.543 0 3.357-.641 6.601-1.848 9.544Z" fill="#253858"/><g clip-path="url(#a)"><path fill-rule="evenodd" clip-rule="evenodd" d="M29.757 74.581a5.505 5.505 0 0 1 1.47 2.802 5.567 5.567 0 0 1-.306 3.161A5.45 5.45 0 0 1 28.943 83a5.301 5.301 0 0 1-2.984.922c-1.063 0-2.101-.321-2.985-.922a5.451 5.451 0 0 1-1.978-2.456c-.406-1-.513-2.1-.305-3.161a5.503 5.503 0 0 1 1.47-2.802 5.36 5.36 0 0 1 1.742-1.187 5.282 5.282 0 0 1 4.112 0 5.363 5.363 0 0 1 1.742 1.187Zm-3.798-5.249a8.886 8.886 0 0 1 6.339 2.679 9.223 9.223 0 0 1 2.624 6.46 9.223 9.223 0 0 1-2.628 6.458 8.885 8.885 0 0 1-6.34 2.675 8.886 8.886 0 0 1-6.341-2.675 9.223 9.223 0 0 1-2.628-6.458c0-2.423.944-4.746 2.625-6.46a8.886 8.886 0 0 1 6.339-2.678h.01Zm22.582 5.25a5.503 5.503 0 0 1 1.47 2.8 5.566 5.566 0 0 1-.306 3.162A5.451 5.451 0 0 1 47.727 83a5.301 5.301 0 0 1-2.984.922c-1.062 0-2.1-.321-2.984-.922a5.45 5.45 0 0 1-1.978-2.456c-.407-1-.513-2.1-.306-3.161a5.504 5.504 0 0 1 1.47-2.802 5.363 5.363 0 0 1 1.742-1.187 5.282 5.282 0 0 1 4.112 0 5.36 5.36 0 0 1 1.742 1.187Zm2.532-2.58a9.195 9.195 0 0 1 2.583 5.555 9.256 9.256 0 0 1-1.463 5.963 8.972 8.972 0 0 1-4.844 3.665 8.803 8.803 0 0 1-6.027-.297 9.018 9.018 0 0 1-4.475-4.124 9.273 9.273 0 0 1-.89-6.08 9.156 9.156 0 0 1 3.097-5.275 8.814 8.814 0 0 1 9.11-1.385 8.947 8.947 0 0 1 2.91 1.978ZM3.583 87.518l.892.05h13.426l-.049-.91c-.118-1.5-1.168-2.6-2.64-2.69l-.893-.05H6.27l10.737-10.936-.05-.91c-.068-1.51-1.157-2.61-2.64-2.69l-.892-.04H0l.05.91c.117 1.48 1.177 2.6 2.64 2.69l.892.05h8.058L.893 83.919l.05.91c.087 1.5 1.157 2.589 2.64 2.689Zm61.27-12.717c.303.54.402 1.14.44 1.83l.05.91v6.378l.049.91c.088 1.49 1.168 2.599 2.64 2.689l.893.05V77.54l.05-.91c.038-.68.127-1.299.44-1.839a3.615 3.615 0 0 1 1.313-1.326 3.531 3.531 0 0 1 3.572.006c.543.319.994.778 1.309 1.33.304.54.402 1.16.431 1.82l.05.91v6.388l.049.91c.088 1.5 1.158 2.599 2.64 2.689l.893.05V76.63c0-1.48-.444-2.926-1.27-4.144a7.177 7.177 0 0 0-3.357-2.673 7.031 7.031 0 0 0-4.254-.256 7.134 7.134 0 0 0-3.642 2.254 7.125 7.125 0 0 0-4.466-2.411 7.062 7.062 0 0 0-4.917 1.191c-.696-.79-2.257-1.25-3.15-1.25v18.236l.893-.05c1.492-.1 2.581-1.18 2.64-2.69l.05-.91v-6.377l.048-.91c.04-.69.128-1.29.442-1.83a3.596 3.596 0 0 1 1.307-1.327 3.513 3.513 0 0 1 1.784-.482 3.466 3.466 0 0 1 1.775.476c.54.317.987.773 1.297 1.323Z" fill="#253858"/></g><g clip-path="url(#b)" fill="#172B4D"><path d="M153.392 71.461h-.469v13.38h.469v-13.38ZM144.568 74.897h-2.063v6.662h2.063c2.197 0 3.605-1.335 3.605-3.324 0-1.99-1.408-3.325-3.605-3.325v-.013Zm-.068 5.855h-1.04v-5.024h1.04c1.849 0 2.707 1.033 2.707 2.512 0 1.48-.858 2.512-2.707 2.512Zm-6.979-1.213-4.489-4.82v6.82h.885V76.94l4.487 4.817v-6.834h-.883v4.616Zm-33.522-1.293c0 1.997 1.406 3.325 3.605 3.325h2.448v-3.456h-.946v2.624h-1.435c-1.848 0-2.707-1.017-2.707-2.512 0-1.494.859-2.512 2.707-2.512h2.381v-.818h-2.448c-2.199 0-3.605 1.334-3.605 3.325v.024Zm15.391-1.323c0-1.477-1.031-2.02-2.825-2.02h-2.049v6.662h.937v-5.85h1.075c1.379 0 1.901.246 1.904 1.203 0 .957-.525 1.202-1.904 1.202h-.64l2.827 3.434h1.193s-2.332-2.69-2.314-2.691c1.153-.196 1.794-.782 1.798-1.945l-.002.005Zm3.825 4.633h.922l.722-1.574h3.02l.709 1.574h.989l-3.187-6.864-3.175 6.864Zm2.084-2.534 1.086-2.354 1.067 2.36-2.153-.006ZM185.245 75.6h2.472v5.884h.961v-5.885h2.405v-.824h-5.838v.824Zm9.038-.825v.824h2.491v5.885h.96v-5.885h2.516v-.824h-5.967Zm-23.606 3.417-2.235-3.418h-1.059l2.793 4.385v2.327h.956v-2.353l2.737-4.36h-1.025l-2.167 3.42Zm5.301 3.292h.937l.764-1.5h3.447l.75 1.5h.999l-3.449-6.949-3.448 6.949Zm2.18-2.46 1.256-2.475 1.232 2.475h-2.488ZM162.947 77.873h-3.605v-3.095h-.958v6.712h.958v-2.791h3.605v2.79h.96v-6.711h-.96v3.095ZM201.862 74.778a.652.652 0 0 0-.628.385.625.625 0 0 0 .149.714.648.648 0 0 0 .479.174.654.654 0 0 0 .629-.384.625.625 0 0 0-.149-.715.648.648 0 0 0-.48-.174Zm0 1.162a.533.533 0 0 1-.488-.329.517.517 0 0 1 .122-.57.532.532 0 0 1 .581-.108.527.527 0 0 1 .324.488.51.51 0 0 1-.154.377.515.515 0 0 1-.385.143Z"/><path d="M202.183 75.758c-.06-.07-.206-.238-.234-.273a.185.185 0 0 0 .076-.016.183.183 0 0 0 .103-.112c.008-.025.011-.051.008-.077 0-.146-.094-.212-.298-.212h-.218v.698h.109v-.606h.107c.146 0 .187.03.187.12s-.045.12-.187.12h-.079l.3.37h.137l-.011-.012Z"/></g><path d="M273.938 79.078c.309-.011 1.07.088 2.719.15 1.725.067 2.067-1.283 1.998-2.117-1.758.382-2.177.481-3.694.481-1.595 0-3.557.449-3.593 1.865-.036 1.404 1.784 1.72 2.73 1.989.262.062.36.276.186.415-.404.328-1.318.758-1.427 1.526-.153 1.089.826 1.942 2.071 1.916 1.656-.033 3.483-.746 5.241-2.875.495-.603 1.052-1.618 1.398-2.067.084-.162.32-.239.422-.228.313.07.757.309.699.655-.091.525-1.511 2.169-.564 3.158.582.607 2.045 1.048 3.21.191 1.092-.801.706-1.533.273-1.588-.309-.037-1.172 1.059-1.871.276-.579-.648.797-1.99 1.074-2.471.397-.692-1.147-1.21-1.795-2.067-.418-.562.667-2.294-.691-2.75-.444-.15-1.816.684-1.329 3.081-.622 2.368-5.372 6.512-6.005 4.843-.153-.408.254-1.085 1.343-1.313 1.798-.379 1.656-1.5.797-1.614-1.347-.177-1.722-.177-3.327-.555-.63-.067-.608-.916.135-.901ZM248.006 81.811c-.432.436-.93 1.042-.995 1.528-.146 1.057.399 1.99 1.744 1.964 1.442-.025 1.918-1.07 4.331-2.537.675-.41 1.511-1.104 1.856-1.158.135 0 .327.04.313.294-.204.962-.429 1.608-.178 2.432.174.577.941.94 1.493.523.923-.697.934-1.093 2.129-2.661.196-.261.923-1.452 1.257-1.292.28.13.2.519.149.82-.25 1.47-.89 3.79 2.017 3.434.69-.083 1.246-.552.723-1.045-.316-.298-.672-.084-1.072-.175-.934-.214 1.374-4.461.273-5.249-1.548-1.107-2.983.857-4.059 2.287-.425.567-.737.316-1.014-.479-.305-.886-2.147-.24-3.204.305-1.686.868-4.8 3.775-5.087 2.327-.051-.25.356-.81 1.112-1.086.886-.323 1.893-.61 1.893-1.143 0-.414-.251-.704-.516-.69-1.239.07-2.682.396-4.331-.058-.374-.003-.538-.947.578-.824.294.033.952.076 3.448.127 1.758.037 1.795-1.278 1.558-1.978-1.46.435-2.205.385-3.753.385-1.624 0-3.808.225-3.717 1.786.08 1.314 1.926 1.677 2.881 1.782.284-.018.367.243.171.381Z" fill="#253858" stroke="#253858" stroke-width=".734" stroke-miterlimit="3.864"/><path fill-rule="evenodd" clip-rule="evenodd" d="M242.507 78.21c.148-.557.468-.682.889-.781.626-.21 1.503-.49 2.043-.59 1.359-.342 1.752-.26 1.928-1.226.122-.67-.162-.99-.162-.99s-2.968.95-3.561 1.12c-.518.228-.421-.329-.421-.329s-.075.354.248-1.086c.971-4.375.403-5.542-.37-6.209-1.957-1.657-9.093 1.775-14.201 5.903-1.702 1.514-2.687 1.867-1.579 3.079.985 1.01 1.626.254 1.626.254.938-.758 2.96-2.88 4.291-3.889 1.895-1.436 4.51-3.51 6.827-4.062 1.838-.475 2.392.078 2.144 1.993-.144 1.646-1.382 5.35-1.382 5.35s-1.899.87-2.463 1.087c-.443.17-.914.051-.964 1.086-.022 1.109.633.693 1.075.523.342-.132 1.144-.52 1.442-.648.223-.177.468-.026.346.302-.223.733-.623 1.919-1.382 3.635-.96 2.346-2.686 5.553-2.909 6.36.025.53.593.604 1.338.615.687-.056 1.003-.542 1.003-.542s.892-1.963 2.266-5.424a63.478 63.478 0 0 0 1.928-5.531Z" fill="#253858" stroke="#253858" stroke-width=".734" stroke-miterlimit="3.864"/><path d="M267.71 79.155c-1.08-.315-2.026.975-2.302 2.126-.251 1.048-.12 2.455.822 2.638.753.147 1.629-.52 1.855-1.748.058-.33.2-1.382.24-1.649.258-1.671.454-2.4.454-2.4.902-3.485 3.066-10.265 3.655-10.66.611-.41 2.295-.48 1.768.934-.818 2.199-1.771 4.148-2.633 6.86-1.011 3.18-2.968 8.286-1.222 8.513.814.106 1.145-.653 1.636-.268.75.59-.069 1.657-1.513 1.8-1.985.073-1.942-1.1-2.822-.594-2.822 1.616-4.56-.645-4.004-3.474.476-2.426 2.331-4.137 4.401-3.09 0 0 .531.264.487.719-.04.344-.302.414-.822.293Z" fill="#253858" stroke="#253858" stroke-width=".734" stroke-miterlimit="3.864"/><path fill-rule="evenodd" clip-rule="evenodd" d="M286.502 76.173c.2 0 .346.019.441.056.165.068.248.207.248.41a.36.36 0 0 1-.158.318.592.592 0 0 1-.233.08.387.387 0 0 1 .278.157c.06.086.087.169.087.248v.116c0 .037 0 .079.003.12a.265.265 0 0 0 .015.082l.012.02h-.268l-.003-.016c0-.004-.004-.011-.004-.018l-.008-.053v-.128c0-.187-.049-.307-.15-.367-.06-.034-.166-.053-.316-.053h-.226v.634h-.286v-1.61h.568v.004Zm.305.255c-.071-.041-.184-.06-.342-.06h-.241v.582h.256c.12 0 .21-.011.271-.038.109-.045.165-.127.165-.251 0-.117-.037-.192-.109-.233Zm.764 1.595a1.407 1.407 0 0 1-1.042.432 1.4 1.4 0 0 1-1.039-.432 1.414 1.414 0 0 1-.425-1.04c0-.405.143-.746.429-1.035a1.414 1.414 0 0 1 1.035-.428c.406 0 .752.142 1.042.428.286.285.429.63.429 1.036.004.405-.143.75-.429 1.04Zm-1.934-1.933a1.224 1.224 0 0 0-.369.894c0 .352.124.649.365.897.245.247.546.371.896.371s.647-.124.895-.371c.245-.248.369-.548.369-.897 0-.35-.124-.646-.369-.894a1.219 1.219 0 0 0-.895-.371c-.347 0-.644.124-.892.371Z" fill="#253858"/><defs><clipPath id="a"><path fill="#fff" transform="translate(0 69.332)" d="M0 0h79.672v18.245H0z"/></clipPath><clipPath id="b"><path fill="#fff" transform="translate(103.999 54.128)" d="M0 0h98.525v48.654H0z"/></clipPath></defs></svg>