<svg xmlns:xlink="http://www.w3.org/1999/xlink" xmlns="http://www.w3.org/2000/svg" viewBox="0 0 190 32" rotate="0" width="190" height="32" class="SvgIcon__StyledSvgIcon-sc-2tb2y8-0 eWECFQ"><path fill-rule="evenodd" clip-rule="evenodd" d="M28.4557 0.179464C28.2653 0.138049 28.0748 0.0690272 27.8843 0H26.7826C25.7052 0.28004 24.8562 0.946532 23.9905 1.62617L23.899 1.69801C22.4571 2.84385 20.4848 2.84385 19.1246 1.68421C18.2677 0.952545 17.3971 0.317513 16.309 0H15.2208C14.0646 0.276098 13.1669 0.980157 12.2555 1.69801C10.8001 2.84385 8.81418 2.84385 7.44039 1.6428C6.58341 0.897327 5.6993 0.289907 4.61112 0H3.52295C3.26452 0.0966337 2.99248 0.193268 2.72044 0.289896V0.289901L2.72043 0.289907C1.40102 0.786884 0.584891 1.75324 0.176828 3.09231C0.149624 3.17513 0.119019 3.25801 0.0884137 3.34083C0.0578093 3.42365 0.0272043 3.50646 0 3.58928V4.69371C0.272043 5.83954 0.897738 6.73687 1.67306 7.59278C2.89726 9.01468 2.91086 11.1268 1.70027 12.5211C0.938548 13.3909 0.312849 14.302 0.0136021 15.434V16.5384C0.299247 17.6704 0.938548 18.5677 1.70027 19.4513C2.88365 20.8317 2.89726 22.9439 1.71387 24.3244C0.952149 25.2217 0.285645 26.1329 0.0136021 27.3063V28.4107C0.122411 28.673 0.217619 28.949 0.312826 29.2251L0.312849 29.2252C0.802523 30.5643 1.74107 31.4064 3.06048 31.8206C3.14209 31.8482 3.22371 31.8792 3.30532 31.9103C3.38693 31.9414 3.46855 31.9724 3.55016 32H4.63833C5.75368 31.7101 6.63785 31.0613 7.50837 30.2882C8.89581 29.0595 10.9905 29.0595 12.3643 30.302C13.2349 31.0751 14.1326 31.7101 15.248 32H16.3361C16.4478 31.9622 16.5595 31.9187 16.6724 31.8747L16.6725 31.8747H16.6726C16.8072 31.8222 16.9437 31.7689 17.0843 31.7239C18.8934 31.0889 20.0904 29.17 19.8047 27.3477C19.4783 25.2217 17.9412 23.786 15.9145 23.7032C14.7311 23.6618 13.7381 24.0621 12.8812 24.8628C11.7251 25.9534 10.392 26.4642 8.82777 26.0086C5.79452 25.1389 4.73354 21.384 6.88269 19.0509C7.84843 18.0017 8.28372 16.8145 8.13405 15.4064C8.01868 14.3521 7.40751 13.5801 6.79082 12.8011L6.79071 12.801L6.7906 12.8008C6.75328 12.7536 6.71591 12.7065 6.67864 12.6592C4.4207 9.80157 6.54263 6.48835 8.97738 5.88095C10.4736 5.50821 11.7251 5.97758 12.8132 7.05434C14.4727 8.68334 16.9755 8.80757 18.4989 7.17862C20.2128 5.35632 22.8924 5.30111 24.6199 7.19243C25.7625 8.43488 27.6668 8.64193 29.163 7.89645C30.7272 7.10955 31.5705 5.50821 31.3937 3.61689C31.2577 2.05695 30.0199 0.621223 28.4557 0.179464ZM27.3946 26.5193C26.5921 26.5055 25.9801 27.0992 25.9801 27.9275C25.9801 28.7558 26.5785 29.377 27.3674 29.3632C28.1428 29.3632 28.7957 28.6867 28.7821 27.9137C28.7685 27.1682 28.1428 26.5331 27.3946 26.5193ZM25.9801 16.3176C25.9936 15.4893 26.5785 14.9095 27.4083 14.9233C28.17 14.9371 28.7821 15.5722 28.7821 16.3314C28.7821 17.1045 28.1156 17.7809 27.3538 17.7809C26.5785 17.7671 25.9801 17.1183 25.9801 16.3176ZM15.7239 17.8639C16.5128 17.8777 17.1249 17.2565 17.1249 16.442C17.1386 15.6137 16.54 15.0062 15.7239 15.02C14.9622 15.0339 14.3501 15.6413 14.3229 16.4006C14.2957 17.1736 14.9486 17.8501 15.7239 17.8639Z" fill="#F8BF1E"></path><path d="M47.0101 30.7714C50.5726 30.7714 53.1475 29.7655 55.0873 27.8613C56.8156 26.1727 57.9444 23.8375 58.1207 21.2866H51.8777C51.5955 23.7656 49.7613 25.562 46.9748 25.562C43.2359 25.562 40.9079 22.1489 40.9079 17.4424C40.9079 12.7719 42.8479 9.28693 46.9395 9.28693C49.6202 9.28693 51.3839 11.0474 51.7013 13.3467H57.9444C57.6269 10.4725 56.3571 7.95762 54.1702 6.26903C52.3715 4.86787 49.9024 4.00562 46.9748 4.00562C39.4617 4.00562 34.5588 9.78991 34.5588 17.4424C34.5588 25.1309 39.6028 30.7714 47.0101 30.7714ZM69.1583 26.6039C66.654 26.6039 65.3489 24.3764 65.3489 21.0351C65.3489 17.6939 66.654 15.4305 69.1583 15.4305C71.6627 15.4305 73.0031 17.6939 73.0031 21.0351C73.0031 24.3764 71.6627 26.6039 69.1583 26.6039ZM69.1936 30.7714C75.0136 30.7714 78.823 26.5679 78.823 21.0351C78.823 15.5023 75.0136 11.2989 69.1936 11.2989C63.4089 11.2989 59.5289 15.5023 59.5289 21.0351C59.5289 26.5679 63.4089 30.7714 69.1936 30.7714ZM115.802 24.8413V9.82372H119.541C123.456 9.82372 125.678 12.8416 125.678 17.5122C125.678 22.2186 123.562 24.8413 119.47 24.8413H115.802ZM109.558 30.1945H119.929C123.103 30.1945 125.643 29.3682 127.618 27.8592C130.44 25.6677 131.992 22.039 131.992 17.5122C131.992 9.64408 127.3 4.50648 120.317 4.50648H109.558V30.1945ZM142.894 30.7334C145.187 30.7334 147.021 30.1226 148.538 29.0448C150.125 27.9311 151.183 26.3503 151.571 24.6976H145.963C145.469 25.8473 144.482 26.5299 142.965 26.5299C140.602 26.5299 139.261 24.985 138.908 22.506H151.889C151.924 18.7696 150.866 15.5721 148.714 13.5602C147.162 12.1231 145.116 11.2608 142.542 11.2608C137.039 11.2608 133.265 15.4643 133.265 20.9612C133.265 26.5299 136.933 30.7334 142.894 30.7334ZM138.944 19.0211C139.332 16.8295 140.46 15.4284 142.647 15.4284C144.517 15.4284 145.857 16.8295 146.069 19.0211H138.944ZM161.503 30.7693C166.23 30.7693 169.721 28.6855 169.721 24.6617C169.721 19.9552 165.983 19.1289 162.808 18.59C160.515 18.1588 158.47 17.9792 158.47 16.6858C158.47 15.5362 159.563 14.9972 160.974 14.9972C162.561 14.9972 163.655 15.5002 163.866 17.1529H169.157C168.875 13.5242 166.124 11.2608 161.009 11.2608C156.741 11.2608 153.214 13.2727 153.214 17.1529C153.214 21.4642 156.565 22.3264 159.704 22.8653C162.103 23.2964 164.29 23.4761 164.29 25.1287C164.29 26.3143 163.196 26.961 161.468 26.961C159.563 26.961 158.364 26.0628 158.152 24.2306H152.72C152.896 28.2903 156.212 30.7693 161.503 30.7693ZM171.588 30.1945H177.267V24.5539L178.995 22.6857L183.333 30.1945H190L182.91 18.6978L189.259 11.7997H182.628L177.267 18.0151V4.50648H171.588V30.1945Z" fill="#FFFFFF"></path><path d="M95.358 30.1945H89.6086V11.7997H95.1463V14.3146H95.2522C96.5925 12.3386 98.3209 11.2608 100.825 11.2608C104.776 11.2608 107.104 14.135 107.104 18.2307V30.1945H101.354V19.4163C101.354 17.4762 100.402 16.1469 98.5325 16.1469C96.6278 16.1469 95.358 17.7636 95.358 20.0271V30.1945Z" fill="#FFFFFF"></path><path d="M80.0757 15.5791L80.0758 11.8396H87.1706V30.2396H81.7001V15.5791H80.0757Z" fill="#FFFFFF"></path><ellipse cx="84.0299" cy="7.03984" rx="3.14169" ry="3.2" fill="#FFFFFF"></ellipse></svg>