<?xml version="1.0" encoding="utf-8"?>
<!-- Generator: Adobe Illustrator 24.2.3, SVG Export Plug-In . SVG Version: 6.00 Build 0)  -->
<svg version="1.2" baseProfile="tiny" id="Ebene_1" xmlns="http://www.w3.org/2000/svg" xmlns:xlink="http://www.w3.org/1999/xlink"
	 x="0px" y="0px" width="116px" height="118px" viewBox="0 0 116 118" overflow="visible" xml:space="preserve">
<g>
	<g>
		<path fill="#FFFFFF" d="M76.4,66.6c-2.6,0-4.9-4.6-5.5-7.1c-2.3-9.4,4.8-18,12.4-22.1c1.8-0.9,2.9-1,3.5-1c0.5,0,0.8,0.1,0.9,0.3
			c0.3,0.4-0.1,0.9-1.1,2L86.3,39c-0.2,0.3-0.5,0.5-0.7,0.8c-1.4,1.5-3,3.2-3.8,6.1c-0.8,2.8-0.7,5.8-0.5,8.4
			c0.2,2.9,0.3,9.9-3.6,12C77.3,66.4,76.8,66.6,76.4,66.6z"/>
		<path fill="#FFFFFF" d="M75.6,77.6c-7.2,0-12-4.6-14.2-7.4c-5.6-7-6.7-16.4-6.7-30.2c0-11.1,1.5-19.6,4.6-25.2
			c0.1-0.2,0.4-0.8,0.4-0.8l0.1-0.1l0-0.1c0-0.2-0.3-3.8-2.8-3.8c-0.3,0-0.6,0.1-0.9,0.2c-1.9,0.6-3.4,4.5-4.4,7.6
			c-4.4,14.4-5.9,42.4,5.1,56.6c0.3,0.6,0.8,1.7,0.4,2.5c-0.3,0.6-1.3,0.9-2.7,0.9c-6.4,0-9.6-7.2-10.9-11.5L43.3,65l-0.6,1
			c-2.9,5.3-7.8,11.6-15.2,11.6c-4.2,0-17.9-1.4-17.9-19.1c0-16.5,9.6-24,16.3-24c5.2,0,10.5,4,10.5,12.8c0,6.9-4.9,12.4-11.2,12.4
			c-3,0-5.3-1.7-5.3-2.3c0-0.6,0.4-1.2,1-1.2c0.3,0,0.4,0.1,0.8,0.3c0.5,0.3,1.1,0.6,2.3,0.6c3.3,0,5.3-5,5.3-9.9
			c0-6.3-1.1-9.2-3.5-9.2c-3,0-7.8,5.1-7.8,18.7c0,11.5,6.7,15.7,11.3,15.7c7.1,0,11.4-6.3,13.3-10l0.1-0.2l0-0.2
			c-0.1-0.4-0.2-0.9-0.3-1.8c-0.9-4.9-1.3-10.8-1.3-17.6C40.9,7.8,52.9,6,55.4,6c5.8,0,6,6.1,6,6.1s2.5-3.6,6.2-3.6
			c4.1,0,6.4,3.1,6.4,8.4c0,14.1-7.7,28.9-11,34.5l-0.1,0.3c1.5,12.9,7.2,21.9,13.8,21.9c0,0,0,0,0,0c7.4,0,11.1-10.7,12.1-20.8
			c0.1-0.7,0.1-1.7,0.2-2.7c0.2-4.4,0.4-10.5,4-12.4c0.5-0.2,0.9-0.4,1.3-0.4c3.1,0,5.7,6.2,6.4,9.5c0.9,4.2,1.1,10.6-3.1,17
			l-0.1,0.1l0,0.2c0.3,5.3,1.8,9.3,4.5,11.5c0.2,0.1,0.3,0.3,0.5,0.4c0.5,0.4,0.6,0.5,0.6,0.7c0,0.3-0.7,0.7-2.1,0.7
			c-5.2,0-7.9-4-9-6.3l-0.3-0.6l-0.5,0.4C85.9,75.4,80.6,77.6,75.6,77.6z M68.6,11.8c-0.1,0-0.2,0-0.2,0c-2.3,0.2-6,8-6,28.3v5.7V48
			l0.9-1.9c3.6-7.8,8-19.2,8-29.4C71.3,15.2,71.3,11.8,68.6,11.8z"/>
	</g>
	<g>
		<path fill="#FFFFFF" d="M18.4,109c-3.8,0-4.5-2.4-4.5-5.6c0-3.1,0.7-5.6,4.6-5.6c1.3,0,2.1,0.3,2.9,0.8c0.3,0.2,0.4,0.4,0.4,0.7
			c0,0.6-0.6,1.2-1.1,1.2c-0.4,0-0.5-0.2-0.9-0.3c-0.6-0.2-0.9-0.3-1.4-0.3c-2.2,0-2.3,1.5-2.3,3.5c0,2,0.1,3.5,2.3,3.5
			c0.4,0,1.1-0.1,1.6-0.4c0.5-0.2,0.7-0.4,1-0.4c0.6,0,1.1,0.6,1.1,1.2c0,0.2-0.1,0.4-0.4,0.7C21,108.6,19.9,109,18.4,109z"/>
		<path fill="#FFFFFF" d="M34.4,97.8c3.8,0,4.5,2.4,4.5,5.6c0,3.2-0.8,5.6-4.5,5.6c-3.8,0-4.5-2.4-4.5-5.6
			C29.8,100.3,30.6,97.8,34.4,97.8z M34.4,106.9c2.2,0,2.3-1.5,2.3-3.5c0-2-0.1-3.5-2.3-3.5c-2.2,0-2.3,1.5-2.3,3.5
			C32.1,105.4,32.2,106.9,34.4,106.9z"/>
		<path fill="#FFFFFF" d="M47.5,100.1c0-0.2-0.1-0.2-0.2-0.2h-0.5c-0.7,0-0.9-0.5-0.9-1c0-0.5,0.2-1,0.9-1h0.5c0.1,0,0.2,0,0.2-0.2
			v-1.4c0-2,1-2.8,2.7-2.8h1c0.7,0,0.9,0.5,0.9,1c0,0.5-0.2,1-0.9,1h-0.7c-0.5,0-0.7,0.3-0.7,0.9v1.3c0,0.2,0.1,0.2,0.2,0.2h1.2
			c0.7,0,0.9,0.5,0.9,1c0,0.5-0.2,1-0.9,1h-1.2c-0.1,0-0.2,0-0.2,0.2v7.9c0,0.7-0.6,1-1.1,1c-0.6,0-1.1-0.3-1.1-1V100.1z"/>
		<path fill="#FFFFFF" d="M60.5,100.1c0-0.2-0.1-0.2-0.2-0.2h-0.5c-0.7,0-0.9-0.5-0.9-1c0-0.5,0.2-1,0.9-1h0.5c0.1,0,0.2,0,0.2-0.2
			v-1.4c0-2,1-2.8,2.7-2.8h1c0.7,0,0.9,0.5,0.9,1c0,0.5-0.2,1-0.9,1h-0.7c-0.5,0-0.7,0.3-0.7,0.9v1.3c0,0.2,0.1,0.2,0.2,0.2h1.2
			c0.7,0,0.9,0.5,0.9,1c0,0.5-0.2,1-0.9,1h-1.2c-0.1,0-0.2,0-0.2,0.2v7.9c0,0.7-0.6,1-1.1,1c-0.6,0-1.1-0.3-1.1-1V100.1z"/>
		<path fill="#FFFFFF" d="M77.2,109c-3.5,0-4.6-2-4.6-5.6c0-3.3,0.9-5.6,4.5-5.6c3.6,0,4.4,2.5,4.4,5c0,0.7-0.3,1.4-1.3,1.4H75
			c-0.1,0-0.2,0-0.2,0.2c0,1.6,0.6,2.5,2.5,2.5c0.6,0,1.4-0.2,1.9-0.5c0.5-0.3,0.7-0.5,1-0.5c0.6,0,1.1,0.6,1.1,1.2
			c0,0.2-0.1,0.5-0.3,0.6C80,108.6,78.6,109,77.2,109z M79.1,102.4c0.1,0,0.2,0,0.2-0.1c-0.1-1.6-0.7-2.5-2.2-2.5
			c-1.6,0-2.1,0.9-2.2,2.4c0,0.1,0,0.2,0.2,0.2H79.1z"/>
		<path fill="#FFFFFF" d="M94.5,109c-3.5,0-4.6-2-4.6-5.6c0-3.3,0.9-5.6,4.5-5.6c3.6,0,4.4,2.5,4.4,5c0,0.7-0.3,1.4-1.3,1.4h-5.2
			c-0.1,0-0.2,0-0.2,0.2c0,1.6,0.6,2.5,2.5,2.5c0.6,0,1.4-0.2,1.9-0.5c0.5-0.3,0.7-0.5,1-0.5c0.6,0,1.1,0.6,1.1,1.2
			c0,0.2-0.1,0.5-0.3,0.6C97.3,108.6,95.9,109,94.5,109z M96.5,102.4c0.1,0,0.2,0,0.2-0.1c-0.1-1.6-0.7-2.5-2.2-2.5
			c-1.6,0-2.1,0.9-2.2,2.4c0,0.1,0,0.2,0.2,0.2H96.5z"/>
	</g>
</g>
</svg>
