<svg width="20" height="20" viewBox="0 0 20 20" fill="none" xmlns="http://www.w3.org/2000/svg">
<path d="M18.1035 14.6889C18.0497 14.8408 17.9975 15.0039 17.9375 15.1643C17.4409 16.5091 16.6868 17.7032 15.7719 18.7975C15.5954 19.0105 15.3896 19.2034 15.1771 19.3822C14.7573 19.7376 14.274 19.9523 13.7151 19.972C13.2952 19.9854 12.8921 19.9092 12.5036 19.7511C12.2222 19.6362 11.9453 19.5078 11.6599 19.4041C10.7338 19.0677 9.81275 19.112 8.90178 19.4719C8.57326 19.602 8.24924 19.7455 7.91456 19.8582C7.52662 19.9882 7.12411 20.0409 6.71431 19.9636C6.35665 19.8968 6.04383 19.7304 5.75344 19.5156C5.39297 19.2488 5.09025 18.9236 4.80715 18.5794C3.46675 16.9447 2.56698 15.0964 2.13252 13.0261C1.94528 12.1359 1.85558 11.2384 1.91052 10.3285C1.97499 9.23758 2.22838 8.19879 2.81141 7.26259C3.54299 6.08588 4.57506 5.31506 5.93283 4.9972C6.74963 4.80491 7.544 4.88339 8.32268 5.18332C8.73247 5.34028 9.14339 5.49557 9.55488 5.64974C9.93384 5.79213 10.3111 5.79213 10.6907 5.64693C11.1105 5.4866 11.531 5.32683 11.9526 5.17042C12.3848 5.01289 12.8243 4.88396 13.2829 4.84752C13.969 4.79202 14.6384 4.88115 15.2898 5.09923C16.2131 5.40812 16.9643 5.9547 17.5317 6.75076C17.5468 6.77262 17.5636 6.79673 17.5748 6.8141C16.1442 7.81141 15.3296 9.12883 15.4479 10.9127C15.5673 12.6976 16.5282 13.9051 18.1035 14.6889ZM10.0785 4.62664C10.5006 4.63785 10.9065 4.55656 11.2972 4.40128C13.0794 3.6938 14.0111 1.8085 13.9831 0.366633C13.9808 0.250589 13.973 0.134544 13.9679 0C13.7846 0.0274694 13.6176 0.0403633 13.4572 0.0807265C12.1561 0.399708 11.1548 1.12569 10.4967 2.30127C10.1116 2.98968 9.8974 3.72071 9.96299 4.51957C9.96748 4.60422 9.99831 4.62552 10.0785 4.62664Z" fill="black"/>
</svg>
