<svg width="14" height="14" viewBox="0 0 14 14" fill="none" xmlns="http://www.w3.org/2000/svg">
<path fill-rule="evenodd" clip-rule="evenodd" d="M7 1.375C3.89364 1.375 1.375 3.89361 1.375 7C1.375 10.1064 3.89364 12.625 7 12.625C10.1064 12.625 12.625 10.1064 12.625 7C12.625 3.89361 10.1064 1.375 7 1.375ZM7 0.25C3.27232 0.25 0.25 3.27229 0.25 7C0.25 10.7277 3.27232 13.75 7 13.75C10.7277 13.75 13.75 10.7277 13.75 7C13.75 3.27229 10.7277 0.25 7 0.25Z" fill="#A6A6A6"/>
<path d="M5.42511 10.2285C5.42511 9.892 5.69794 9.61917 6.03449 9.61917H6.43604V7.1959H6.23518C5.89863 7.1959 5.62581 6.92307 5.62581 6.58653C5.62581 6.24998 5.89863 5.97715 6.23518 5.97715H7.04541C7.38196 5.97715 7.65479 6.24998 7.65479 6.58653V9.61917H8.04725C8.38379 9.61917 8.65662 9.892 8.65662 10.2285C8.65662 10.5651 8.38379 10.8379 8.04725 10.8379H6.03449C5.69794 10.8379 5.42511 10.5651 5.42511 10.2285Z" fill="#A6A6A6"/>
<path d="M6.01562 4.11376C6.01562 4.65741 6.45634 5.09813 7 5.09813C7.54365 5.09813 7.98438 4.65741 7.98438 4.11376C7.98438 3.5701 7.54366 3.12938 7 3.12938C6.45634 3.12938 6.01562 3.5701 6.01562 4.11376Z" fill="#A6A6A6"/>
</svg>
