<svg id="Ebene_1" data-name="Ebene 1" xmlns="http://www.w3.org/2000/svg" width="274.28mm" height="141.35mm" viewBox="0 0 777.5 400.66"><title>willhaben_logo</title><path d="M641.9,0H135.6C60.83,0,0,61.59,0,137.3S60.83,274.6,135.6,274.6h44.61l-28.56,43.85a50.46,50.46,0,0,0-7.25,38.38,55.51,55.51,0,0,0,53.92,43.83,52,52,0,0,0,43.73-23.21L310.26,274.6H642.2a133.64,133.64,0,0,0,95.2-39.71,136.74,136.74,0,0,0,40.1-97.61C777.5,61.59,716.67,0,641.9,0Z" fill="#fff"/><path d="M642.2,37.2H135.6c-54.4,0-98.3,44.7-98.3,100.1s43.9,100.1,98.3,100.1H641.9c54.4,0,98.3-44.7,98.3-100.1C740.2,82.2,696.3,37.2,642.2,37.2Z" fill="#fff"/><path d="M641.9,7H135.6C64.7,7,7,65.4,7,137.3S64.7,267.6,135.6,267.6h57.53L157.5,322.3c-13.8,20.8-7.1,49.3,14.7,63.5,21.6,14.2,50.3,8.6,64-12.2l70.31-106H642.2c70.8,0,128.5-58.4,128.3-130.3C770.5,65.4,712.8,7,641.9,7Zm0,200.5H135.6c-37.3,0-67.8-31.5-67.8-69.9,0-38.7,30.5-69.9,67.8-69.9H641.9c37.3,0,67.8,31.5,67.8,69.9C709.7,176.3,679.2,207.5,641.9,207.5Z" fill="#00a4e8"/><path d="M201.9,167.5H181.3l-5.1-23.1a124.31,124.31,0,0,1-2.3-15.8h0a100.1,100.1,0,0,1-2.3,15l-5.3,23.9H147l-14.7-61.7h18l5.6,25.2a101.43,101.43,0,0,1,2,13.5h0a110.08,110.08,0,0,1,2.3-13.2l6.6-25.4h17l6.1,24.6a81.83,81.83,0,0,1,2.5,13.5h0c.8-5.3,1.5-10.2,2.5-14.2l5.1-23.9h17Z" fill="#262274"/><path d="M227.6,167.5V105.8h17v61.7Z" fill="#262274"/><path d="M259.8,167.5V105.8h17v46.7h17v15.2h-34v-.2Z" fill="#262274"/><path d="M305.8,167.5V105.8h17v46.7h17v15.2h-34Z" fill="#262274"/><path d="M387.1,167.5V143.1H368.6v24.4h-17V105.8h17v22.6h18.5V105.8h17v61.7Z" fill="#262274"/><path d="M455.9,167.5l-3.3-10.2H433.5l-3,10.2H413.7l20.1-61.7h19.6l21.1,61.7Zm-9.9-31c-1-3.6-2.3-6.9-2.8-10.7h-.3a87.76,87.76,0,0,1-3,11.7l-2,6.9h10.7Z" fill="#262274"/><path d="M505.5,167.8c-3.8,0-10.9-.3-21.3-.3V106c6.1-.3,17-.5,24.6-.5,13.5,0,21.8,5.1,21.8,16a15.08,15.08,0,0,1-7.9,13v.3c5.3,1.8,8.9,7.4,8.9,13.5C531.6,158.9,523,167.8,505.5,167.8Zm.5-48.5a23.25,23.25,0,0,0-4.8.3v10.2h3.6c5.3,0,7.9-2.3,7.9-5.8C512.6,120.8,510.1,119.3,506,119.3Zm-.5,23.1h-4.3v11.2c1,0,3,.3,4.3.3,4.6,0,7.6-2,7.6-5.8C513.4,144.9,510.8,142.4,505.5,142.4Z" fill="#262274"/><path d="M543.3,167.5V105.8h36.1v14.5H560.3v8.6h18v14h-18v9.9h19.1v14.7Z" fill="#262274"/><path d="M626.2,167.5l-10.4-21.1a145.55,145.55,0,0,1-6.1-14c.3,3.6.5,5.8.5,9.7v25.2H593.9V105.8h21.8l8.9,18.3c2.5,5.6,5.3,11.2,7.4,16a115.41,115.41,0,0,1-.8-12.7V105.8h16.3v61.7Z" fill="#262274"/></svg>