<svg xmlns="http://www.w3.org/2000/svg" viewBox="0 0 380.1 90.4"><defs><style>.cls-1,.cls-2{fill:none;stroke:#000;stroke-miterlimit:10}.cls-1{stroke-width:2px}</style></defs><title>logo_v2</title><g id="Ebene_2" data-name="Ebene 2"><g id="Ebene_1-2" data-name="Ebene 1"><path class="cls-1" d="M1 71.6V2.8A1.8 1.8 0 0 1 2.8 1h66.4a1.7 1.7 0 0 1 1.7 1.8v68.8a1.7 1.7 0 0 1-1.7 1.8H2.8A1.8 1.8 0 0 1 1 71.6z" id="Ebene_1-3" data-name="Ebene 1"/><path d="M14.5 11.3a1 1 0 0 1 1.3.6 11.5 11.5 0 0 1 .7 3.6c.2 6.8-.3 13.5-.2 20.2a41.4 41.4 0 0 0 1.3 10.5A8 8 0 0 0 21 51a8.3 8.3 0 0 0 5.8.5 88.7 88.7 0 0 0 12.3-4.1q4.6-1.9 9.3-4.2a66.4 66.4 0 0 1 9.5-4.1 8.6 8.6 0 0 1 3.2-.5 1 1 0 0 1 .8 1A2.6 2.6 0 0 1 61 41a26.3 26.3 0 0 1-4.9 3.9c-6.9 4.8-13.7 9.6-20.7 14.3a80.3 80.3 0 0 1-8.9 5.3c-3.7 1.6-7.8 2.7-11.8 2.2a8.4 8.4 0 0 1-6.3-4c-1.7-2.9-1.7-6.5-1.4-9.9 1.2-9.7 2.7-19.4 4.2-29 .5-2.6.9-5.3 1.3-7.9a10.8 10.8 0 0 1 1-3.5 2.1 2.1 0 0 1 1-1.1zm43.4 42.6a2.3 2.3 0 0 1 2.8 1 6.3 6.3 0 0 1 .6 3.6c-.6 5-1.2 10-1.9 15s-1.3 9.2-2 13.8a5.7 5.7 0 0 1-1.1 2.8.9.9 0 0 1-1.3 0 4.3 4.3 0 0 1-.4-2.2l.6-14.4c.1-5.3.3-10.5.3-15.8a4 4 0 0 1 2.4-3.8z" id="Ebene_2-2" data-name="Ebene 2"/><path d="M148.8 23.2V54h-7.2V41.4h-14V54h-7.1V23.2h7.1v12.1h14V23.2zm14.5 5.8h-9.9v-5.8h26.9V29h-9.9v25h-7.1zm21.6-5.8h7.2v25h15.4V54h-22.6zm70.4 0L242 54h-7.1l-13.3-30.8h7.7l9.4 22 9.5-22zm2.5 0c0-2.2 1.7-3.8 4.3-3.8s4.2 1.5 4.2 3.7a3.9 3.9 0 0 1-4.2 3.9c-2.6 0-4.3-1.7-4.3-3.8zm.8 7.1h6.9V54h-6.9zm14.1-9h6.9V54h-6.9zm14.1 0h6.9V54h-6.9zm35.1 19.2V54h-6.5v-2.9c-1.2 2.1-3.7 3.3-7.2 3.3-5.5 0-8.8-3.1-8.8-7.2s2.9-7.1 10.1-7.1h5.5c0-3-1.8-4.7-5.5-4.7a11.7 11.7 0 0 0-6.8 2.2l-2.4-4.8c2.5-1.8 6.4-2.8 10.2-2.8 7.2 0 11.4 3.3 11.4 10.5zm-6.9 6v-2.4h-4.7c-3.2 0-4.2 1.2-4.2 2.8s1.4 2.8 3.8 2.8a5 5 0 0 0 5.1-3.2zm12.4-4.3c0-7.2 5.5-12.2 13.2-12.2 5 0 8.9 2.1 10.6 6l-5.3 2.9a5.9 5.9 0 0 0-5.3-3.3c-3.5 0-6.2 2.4-6.2 6.6s2.7 6.5 6.2 6.5a5.8 5.8 0 0 0 5.3-3.2l5.3 2.9c-1.7 3.8-5.6 6-10.6 6-7.7 0-13.2-5.1-13.2-12.2zm52.7-1.8V54h-6.9V41.5c0-3.8-1.8-5.6-4.8-5.6s-5.7 2-5.7 6.4V54h-6.8V21.3h6.8v11.5a10.3 10.3 0 0 1 7.6-2.8c5.6 0 9.8 3.2 9.8 10.4z"/><path class="cls-2" d="M96.3 9.8v58.8"/></g></g></svg>